# xmcd
#
# Track frame offsets:
#	150
#	9470
#	20832
#	34004
#	44013
#	56701
#	67793
#	79832
#	91786
#	105387
#	118831
#	128578
#
# Disc length: 1875
#
# Revision: 3
# Processed by: cddbd v1.5.1PL0 Copyright (c) Steve Scherf et al.
# Submitted via: audiograbber 1.82.02
# Normalized: r1:TDELIM( - ),TSWAP
#
DISCID=9407510c
DTITLE=Various Artist - Go West Country Disc 2
DYEAR=2002
DGENRE=Country
TTITLE0=Willie Nelson - One Step Beyond
TTITLE1=Kitty Wells - Heartbreak USA
TTITLE2=Kenny Rogers - Ruby Don't Take Your Love To Town
TTITLE3=Faron Young - Hello Walls
TTITLE4=Lynn Anderson - Top Of The World
TTITLE5=Conway Twitty - Big Town
TTITLE6=Freddie Fender - Before The Next Teardrop Falls
TTITLE7=Billie Jo Spears - Look What They've Done To My Song
TTITLE8=Johnny Paycheck - I'm The Only Hell My Momma Ever Raised
TTITLE9=David Houston - Almost Persuaded
TTITLE10=Ferlin Husky - Truck Drivin' Son Of A Gun
TTITLE11=Dolly Parton - Letter To Heaven
EXTD=
EXTT0=
EXTT1=
EXTT2=
EXTT3=
EXTT4=
EXTT5=
EXTT6=
EXTT7=
EXTT8=
EXTT9=
EXTT10=
EXTT11=
PLAYORDER=
